
<svg width="200" height="200" viewBox="0 0 200 200" fill="none" xmlns="http://www.w3.org/2000/svg">
  <path d="M100 20C55.8172 20 20 55.8172 20 100C20 144.183 55.8172 180 100 180C144.183 180 180 144.183 180 100C180 55.8172 144.183 20 100 20Z" fill="black"/>
  <path d="M124.916 67.0835C124.916 67.0835 139.917 82.0835 149.917 97.0835C159.917 112.083 149.917 127.083 149.917 127.083L144.917 122.083C144.917 122.083 149.917 112.083 144.917 102.083C139.917 92.0835 124.916 77.0835 124.916 77.0835V67.0835Z" stroke="white" stroke-width="2"/>
  <path d="M124.916 67.0835L114.916 77.0835L104.916 67.0835L94.9164 77.0835L84.9164 67.0835L74.9164 77.0835L64.9164 67.0835V132.083L74.9164 142.083L84.9164 132.083L94.9164 142.083L104.916 132.083L114.916 142.083L124.916 132.083V67.0835Z" stroke="white" stroke-width="2"/>
  <path d="M64.9164 67.0835L54.9164 77.0835L44.9164 87.0835V112.083L54.9164 122.083L64.9164 132.083" stroke="white" stroke-width="2"/>
</svg>
